<mxfile host="app.diagrams.net" modified="2022-11-09T09:38:03.755Z" agent="5.0 (Windows NT 10.0; Win64; x64) AppleWebKit/537.36 (KHTML, like Gecko) Chrome/106.0.0.0 Safari/537.36 OPR/92.0.0.0" etag="qIEIbAfC0GO5t7eHySd_" version="20.5.1" type="github">
  <diagram id="C5RBs43oDa-KdzZeNtuy" name="Page-1">
    <mxGraphModel dx="2130" dy="577" grid="1" gridSize="10" guides="1" tooltips="1" connect="1" arrows="1" fold="1" page="1" pageScale="1" pageWidth="827" pageHeight="1169" background="none" math="0" shadow="0">
      <root>
        <mxCell id="WIyWlLk6GJQsqaUBKTNV-0" />
        <mxCell id="WIyWlLk6GJQsqaUBKTNV-1" parent="WIyWlLk6GJQsqaUBKTNV-0" />
        <mxCell id="zkfFHV4jXpPFQw0GAbJ--0" value="Car Parking System" style="swimlane;fontStyle=3;align=center;verticalAlign=top;childLayout=stackLayout;horizontal=1;startSize=30;horizontalStack=0;resizeParent=1;resizeLast=0;collapsible=1;marginBottom=0;rounded=0;shadow=0;strokeWidth=2;fontSize=13;" parent="WIyWlLk6GJQsqaUBKTNV-1" vertex="1">
          <mxGeometry y="150" width="310" height="130" as="geometry">
            <mxRectangle y="150" width="160" height="26" as="alternateBounds" />
          </mxGeometry>
        </mxCell>
        <mxCell id="Bo4OIStcDASJzG6UF5eW-12" value="1. AddCar&lt;br&gt;2. DelCar&lt;br&gt;3. Capacity&lt;br&gt;4. Exit" style="text;html=1;align=left;verticalAlign=middle;resizable=0;points=[];autosize=1;strokeColor=default;fillColor=none;fontSize=17;shadow=0;strokeWidth=2;" parent="zkfFHV4jXpPFQw0GAbJ--0" vertex="1">
          <mxGeometry y="30" width="310" height="100" as="geometry" />
        </mxCell>
        <mxCell id="Bo4OIStcDASJzG6UF5eW-20" value="1. AddCar" style="swimlane;childLayout=stackLayout;horizontal=1;startSize=30;horizontalStack=0;rounded=0;fontSize=14;fontStyle=1;strokeWidth=2;resizeParent=0;resizeLast=1;shadow=0;dashed=0;align=center;" parent="WIyWlLk6GJQsqaUBKTNV-1" vertex="1">
          <mxGeometry x="-290" y="360" width="206" height="100" as="geometry" />
        </mxCell>
        <mxCell id="Bo4OIStcDASJzG6UF5eW-21" value="1. Biển số xe&#xa;2. Thời gian vào" style="align=left;strokeColor=none;fillColor=none;spacingLeft=4;fontSize=16;verticalAlign=top;resizable=0;rotatable=0;part=1;" parent="Bo4OIStcDASJzG6UF5eW-20" vertex="1">
          <mxGeometry y="30" width="206" height="70" as="geometry" />
        </mxCell>
        <mxCell id="Bo4OIStcDASJzG6UF5eW-22" value="2. DelCar" style="swimlane;childLayout=stackLayout;horizontal=1;startSize=30;horizontalStack=0;rounded=0;fontSize=14;fontStyle=1;strokeWidth=2;resizeParent=0;resizeLast=1;shadow=0;dashed=0;align=center;strokeColor=default;fillColor=none;" parent="WIyWlLk6GJQsqaUBKTNV-1" vertex="1">
          <mxGeometry x="-30" y="360" width="160" height="100" as="geometry" />
        </mxCell>
        <mxCell id="Bo4OIStcDASJzG6UF5eW-23" value="1. Biển số xe&#xa;2. Thời gian đỗ&#xa;3. Thành tiền" style="align=left;strokeColor=none;fillColor=none;spacingLeft=4;fontSize=16;verticalAlign=top;resizable=0;rotatable=0;part=1;rounded=0;shadow=0;strokeWidth=2;" parent="Bo4OIStcDASJzG6UF5eW-22" vertex="1">
          <mxGeometry y="30" width="160" height="70" as="geometry" />
        </mxCell>
        <mxCell id="Bo4OIStcDASJzG6UF5eW-24" value="3. Capacity" style="swimlane;childLayout=stackLayout;horizontal=1;startSize=30;horizontalStack=0;rounded=0;fontSize=14;fontStyle=1;strokeWidth=2;resizeParent=0;resizeLast=1;shadow=0;dashed=0;align=center;strokeColor=default;fillColor=none;" parent="WIyWlLk6GJQsqaUBKTNV-1" vertex="1">
          <mxGeometry x="190" y="360" width="160" height="120" as="geometry" />
        </mxCell>
        <mxCell id="Bo4OIStcDASJzG6UF5eW-25" value="1. Tổng sức chứa&#xa;2. Đã sử dụng&#xa;3. Còn lại&#xa;4. Vị trí xe" style="align=left;strokeColor=none;fillColor=none;spacingLeft=4;fontSize=16;verticalAlign=top;resizable=0;rotatable=0;part=1;rounded=0;shadow=0;strokeWidth=2;" parent="Bo4OIStcDASJzG6UF5eW-24" vertex="1">
          <mxGeometry y="30" width="160" height="90" as="geometry" />
        </mxCell>
        <mxCell id="HVJBV91w-mCOepjX6eAl-3" value="4. Exit" style="swimlane;childLayout=stackLayout;horizontal=1;startSize=30;horizontalStack=0;rounded=0;fontSize=14;fontStyle=1;strokeWidth=2;resizeParent=0;resizeLast=1;shadow=0;dashed=0;align=center;fillColor=default;" parent="WIyWlLk6GJQsqaUBKTNV-1" vertex="1">
          <mxGeometry x="450" y="360" width="160" height="70" as="geometry" />
        </mxCell>
        <mxCell id="M5GkPqzokPqRNi9PiUkt-0" style="edgeStyle=orthogonalEdgeStyle;rounded=0;orthogonalLoop=1;jettySize=auto;html=1;entryX=0.5;entryY=0;entryDx=0;entryDy=0;" edge="1" parent="WIyWlLk6GJQsqaUBKTNV-1" source="Bo4OIStcDASJzG6UF5eW-12" target="Bo4OIStcDASJzG6UF5eW-20">
          <mxGeometry relative="1" as="geometry" />
        </mxCell>
        <mxCell id="M5GkPqzokPqRNi9PiUkt-1" style="edgeStyle=orthogonalEdgeStyle;rounded=0;orthogonalLoop=1;jettySize=auto;html=1;" edge="1" parent="WIyWlLk6GJQsqaUBKTNV-1" source="Bo4OIStcDASJzG6UF5eW-12" target="Bo4OIStcDASJzG6UF5eW-22">
          <mxGeometry relative="1" as="geometry" />
        </mxCell>
        <mxCell id="M5GkPqzokPqRNi9PiUkt-2" style="edgeStyle=orthogonalEdgeStyle;rounded=0;orthogonalLoop=1;jettySize=auto;html=1;entryX=0.5;entryY=0;entryDx=0;entryDy=0;" edge="1" parent="WIyWlLk6GJQsqaUBKTNV-1" source="Bo4OIStcDASJzG6UF5eW-12" target="Bo4OIStcDASJzG6UF5eW-24">
          <mxGeometry relative="1" as="geometry" />
        </mxCell>
        <mxCell id="M5GkPqzokPqRNi9PiUkt-3" style="edgeStyle=orthogonalEdgeStyle;rounded=0;orthogonalLoop=1;jettySize=auto;html=1;entryX=0.5;entryY=0;entryDx=0;entryDy=0;" edge="1" parent="WIyWlLk6GJQsqaUBKTNV-1" source="Bo4OIStcDASJzG6UF5eW-12" target="HVJBV91w-mCOepjX6eAl-3">
          <mxGeometry relative="1" as="geometry" />
        </mxCell>
      </root>
    </mxGraphModel>
  </diagram>
</mxfile>
